<svg width="40" height="36" viewBox="0 0 40 36" fill="none" xmlns="http://www.w3.org/2000/svg">
<path d="M40 18C40 23.9304 36.813 29.1909 31.8971 32.4705C29.8391 33.843 27.4784 34.8685 24.9216 35.4504C23.347 35.8097 21.6987 36 20 36C18.3013 36 16.6523 35.8097 15.0776 35.4504C12.5209 34.8685 10.16 33.843 8.10203 32.4697C3.18609 29.1901 0 23.9297 0 18C0 8.05887 8.9543 0 20 0C31.0457 0 40 8.05887 40 18Z" fill="black"/>
<path d="M31.9176 28.1351C31.8237 27.5687 31.6996 26.9853 31.5462 26.3888C31.4106 25.8649 31.2531 25.3308 31.0744 24.7886C30.6042 23.3648 29.9846 21.8851 29.2336 20.3893C28.9046 19.7354 28.5503 19.0786 28.1724 18.4225C27.8393 17.8443 27.4883 17.2654 27.1185 16.6901C26.7495 16.1141 26.3691 15.5513 25.9781 15.0025C25.5364 14.3802 25.0817 13.7763 24.6164 13.1929C23.5535 11.8595 22.4393 10.6362 21.3038 9.55765C20.872 9.14695 20.4368 8.75756 20.0001 8.39095C19.503 7.97217 19.0034 7.58355 18.5045 7.22721C15.2482 4.90043 12.3331 4.20173 10.2948 5.26043C8.25642 6.31983 7.47111 8.94122 8.08173 12.6434C8.17478 13.2098 8.2997 13.7932 8.454 14.3897C8.5879 14.9136 8.7454 15.4477 8.92501 15.9899C9.39525 17.4137 10.0148 18.8942 10.7667 20.3892C11.0949 21.0431 11.4491 21.6991 11.827 22.3552C12.1601 22.9342 12.512 23.5124 12.881 24.0884C13.2499 24.6644 13.6303 25.2271 14.0213 25.7759C14.4638 26.399 14.9185 27.0029 15.383 27.5862C16.4459 28.9197 17.5601 30.1422 18.6956 31.2207C19.1275 31.6314 19.5634 32.0215 20.0001 32.3881C20.4972 32.8069 20.9968 33.1948 21.4948 33.5512C22.6924 34.4071 23.8434 35.0426 24.9217 35.4504C27.4784 34.8685 29.8393 33.8429 31.8972 32.4705C32.1845 31.2789 32.1951 29.819 31.9176 28.1351ZM30.0841 32.2031C29.8465 33.1274 29.4098 33.7607 28.7853 34.0847C28.1617 34.4094 27.3339 34.4329 26.3257 34.1567C25.2334 33.8562 23.9584 33.1994 22.6376 32.2553C22.1935 31.9379 21.7486 31.5926 21.3037 31.2216C20.8677 30.8571 20.4318 30.4677 19.9992 30.0556C19.2563 29.3481 18.5217 28.5737 17.8049 27.7428C17.3266 27.1881 16.8556 26.6084 16.396 26.0067C15.729 25.1346 15.0849 24.2163 14.4727 23.2611C13.8596 22.306 13.298 21.345 12.7927 20.3892C12.4433 19.7302 12.1208 19.0734 11.827 18.4232C11.3853 17.449 11.0074 16.4888 10.698 15.5564C10.5184 15.0128 10.3609 14.4794 10.2294 13.957C10.0938 13.4251 9.98369 12.9049 9.9004 12.4002C9.65228 10.8993 9.65798 9.57684 9.91509 8.57545C10.1527 7.65119 10.5902 7.01789 11.2138 6.69389C11.551 6.51902 11.9469 6.43085 12.3983 6.43085C12.7836 6.43085 13.2097 6.49476 13.6734 6.62259C14.7656 6.92233 16.0407 7.5799 17.3615 8.52328C17.8056 8.84067 18.2513 9.18597 18.6954 9.55849C19.1321 9.92215 19.5673 10.3115 19.9991 10.723C20.7427 11.4305 21.4774 12.2049 22.195 13.0366C22.6734 13.5913 23.1444 14.1709 23.604 14.7727C24.2701 15.6447 24.9142 16.5631 25.5264 17.5174C26.1395 18.4726 26.7011 19.4335 27.2064 20.3894C27.5558 21.0491 27.8783 21.706 28.1721 22.3561C28.6138 23.3303 28.9917 24.2899 29.3011 25.2221C29.4807 25.7658 29.6382 26.2992 29.7705 26.8215C29.9052 27.3535 30.0154 27.8736 30.0987 28.3783C30.347 29.8793 30.3413 31.2017 30.0841 32.2031Z" fill="#404040"/>
<path d="M33.4123 14.9738C32.8204 14.7637 32.1967 14.569 31.5453 14.3897C30.9739 14.2332 30.3812 14.0885 29.7697 13.957C28.1648 13.6117 26.431 13.3546 24.6163 13.1929C23.8237 13.1216 23.0147 13.0695 22.1951 13.0364C21.4718 13.0063 20.7387 12.9909 20 12.9909C19.2612 12.9909 18.5281 13.0063 17.804 13.0364C16.9837 13.0695 16.1747 13.1224 15.382 13.1929C13.5673 13.3546 11.8343 13.6117 10.2294 13.957C9.61795 14.0885 9.02529 14.2333 8.45381 14.3897C7.8024 14.5683 7.17873 14.7637 6.58686 14.9738C2.71998 16.3476 0.589355 18.2711 0.589355 20.3892C0.589355 22.5073 2.71998 24.4308 6.58693 25.8054C7.17881 26.0155 7.80162 26.2102 8.45303 26.3895C9.02443 26.546 9.61709 26.6907 10.2286 26.8215C11.8335 27.1675 13.5673 27.4239 15.3829 27.5863C16.1755 27.6568 16.9845 27.709 17.8049 27.7428C18.5282 27.7729 19.2612 27.7876 20 27.7876C20.7387 27.7876 21.471 27.7729 22.1943 27.7428C23.0147 27.709 23.8229 27.6568 24.6163 27.5863C26.431 27.4246 28.1657 27.1675 29.7706 26.8215C30.382 26.69 30.9747 26.546 31.5462 26.3888C32.1968 26.2102 32.8205 26.0155 33.4123 25.8054C37.28 24.4308 39.4098 22.5074 39.4098 20.3892C39.4098 18.2711 37.28 16.3476 33.4123 14.9738ZM36.4098 22.342C35.5755 23.0436 34.3053 23.7085 32.7371 24.2662C32.209 24.4535 31.6538 24.6284 31.0742 24.7885C30.5052 24.9465 29.9134 25.0912 29.3012 25.222C28.2489 25.4476 27.1362 25.6327 25.9779 25.776C25.2056 25.8722 24.413 25.9494 23.604 26.006C22.4309 26.0905 21.2252 26.1331 19.9999 26.1331C18.7746 26.1331 17.5689 26.0905 16.3958 26.0068C15.5869 25.9495 14.7934 25.8723 14.0212 25.7761C12.8628 25.6328 11.7501 25.4476 10.6979 25.2221C10.0856 25.0913 9.49381 24.9466 8.92482 24.7886C8.34522 24.6284 7.79014 24.4536 7.26193 24.2662C5.69381 23.7086 4.42357 23.0437 3.58928 22.3421C2.81865 21.6948 2.42764 21.038 2.42764 20.3893C2.42764 19.7406 2.81865 19.0837 3.58928 18.4365C4.42357 17.7348 5.69373 17.07 7.26193 16.5123C7.79006 16.325 8.34522 16.1501 8.92482 15.99C9.49381 15.832 10.0856 15.6873 10.6979 15.5565C11.7501 15.3309 12.8628 15.1458 14.0212 15.0025C14.7934 14.9062 15.5869 14.8291 16.3958 14.7718C17.5689 14.6881 18.7746 14.6455 19.9999 14.6455C21.2252 14.6455 22.4309 14.6881 23.604 14.7726C24.413 14.8292 25.2056 14.9063 25.9779 15.0026C27.1362 15.1459 28.2489 15.331 29.3012 15.5566C29.9134 15.6873 30.5052 15.832 31.0742 15.99C31.6538 16.1502 32.2089 16.3251 32.7371 16.5124C34.3052 17.07 35.5755 17.7349 36.4098 18.4366C37.1804 19.0839 37.5714 19.7406 37.5714 20.3894C37.5714 21.038 37.1804 21.6948 36.4098 22.342Z" fill="#404040"/>
<path d="M29.7044 5.26043C27.6661 4.20173 24.751 4.90043 21.4947 7.22721C20.9967 7.58355 20.4971 7.97217 20 8.39095C19.5633 8.75756 19.1273 9.14765 18.6955 9.55835C17.56 10.6369 16.4458 11.8594 15.3821 13.1929C14.9176 13.7762 14.4629 14.3802 14.0213 15.0024C13.6303 15.5512 13.2499 16.114 12.8809 16.69C12.5119 17.266 12.1601 17.8442 11.827 18.4231C11.449 19.0792 11.0947 19.736 10.7666 20.3891C10.0147 21.885 9.39521 23.3646 8.92497 24.7885C8.74536 25.3314 8.58786 25.8655 8.4531 26.3893C8.29966 26.9859 8.17474 27.5685 8.08169 28.135C7.80411 29.8182 7.81474 31.278 8.10208 32.4697C10.1601 33.8428 12.5208 34.8685 15.0776 35.4504C16.156 35.0426 17.307 34.4071 18.5046 33.5512C19.0033 33.1948 19.5029 32.8062 20.0001 32.3881C20.4369 32.0215 20.872 31.6321 21.3038 31.2214C22.4385 30.1429 23.5536 28.9196 24.6165 27.5861C25.0809 27.0027 25.5357 26.3988 25.9781 25.7759C26.3691 25.2271 26.7495 24.6643 27.1185 24.0883C27.4883 23.513 27.8393 22.9348 28.1724 22.3559C28.5504 21.6998 28.9047 21.043 29.2337 20.3891C29.9847 18.894 30.6043 17.4136 31.0744 15.9898C31.2532 15.4476 31.4108 14.9134 31.5454 14.3896C31.6997 13.793 31.8238 13.2097 31.9177 12.6432C32.5281 8.94122 31.7429 6.31983 29.7044 5.26043ZM29.3012 15.5564C28.9919 16.4888 28.6139 17.4483 28.1722 18.4224C27.8783 19.0726 27.5559 19.7295 27.2065 20.3892C26.7012 21.345 26.1396 22.306 25.5265 23.2611C24.9143 24.2155 24.2702 25.1338 23.6041 26.0059C23.1437 26.6084 22.6727 27.188 22.1944 27.7427C21.4776 28.5737 20.7429 29.348 19.9993 30.0555C19.5675 30.4669 19.1323 30.8563 18.6956 31.2207C18.2515 31.5925 17.8058 31.9378 17.3617 32.2552C16.0409 33.1992 14.7658 33.856 13.6736 34.1565C12.6654 34.4328 11.8376 34.4093 11.214 34.0845C10.5903 33.7605 10.1527 33.1272 9.91521 32.203C9.6581 31.2016 9.65232 29.8792 9.90052 28.3782C9.9838 27.8735 10.094 27.3533 10.2286 26.8214C10.3609 26.2991 10.5184 25.7657 10.698 25.222C11.0074 24.2897 11.3854 23.3294 11.827 22.3552C12.1209 21.705 12.4433 21.0482 12.7927 20.3892C13.298 19.4334 13.8597 18.4724 14.4727 17.5173C15.085 16.5622 15.729 15.6438 16.396 14.7717C16.8556 14.17 17.3258 13.5904 17.8041 13.0364C18.5217 12.2048 19.2564 11.4304 19.9992 10.7229C20.4319 10.3107 20.8678 9.9213 21.3036 9.55765C21.7486 9.1859 22.1934 8.8406 22.6376 8.52321C23.9583 7.5799 25.2335 6.92233 26.3257 6.62252C26.7894 6.49469 27.2154 6.43078 27.6008 6.43078C28.0522 6.43078 28.4489 6.51895 28.7852 6.69382C29.4097 7.01782 29.8465 7.65112 30.084 8.57538C30.3411 9.57677 30.3469 10.8992 30.0986 12.4002C30.0154 12.9049 29.9052 13.425 29.7697 13.957C29.6383 14.4793 29.4808 15.0127 29.3012 15.5564Z" fill="#404040"/>
<path d="M19.9999 23.6725C22.0147 23.6725 23.6481 22.2025 23.6481 20.3892C23.6481 18.5759 22.0147 17.1059 19.9999 17.1059C17.9851 17.1059 16.3518 18.5759 16.3518 20.3892C16.3518 22.2025 17.9851 23.6725 19.9999 23.6725Z" fill="#404040"/>
</svg>
