<svg id="Layer_1" enable-background="new 0 0 512 512" height="512" viewBox="0 0 512 512" width="512" xmlns="http://www.w3.org/2000/svg"><g><path d="m468.5 361.5h-425c-23.986 0-43.5 19.514-43.5 43.5v63.5c0 23.986 19.514 43.5 43.5 43.5h425c23.986 0 43.5-19.514 43.5-43.5v-63.5c0-23.986-19.514-43.5-43.5-43.5zm-16.75 75.25c0 8.284-6.716 15-15 15h-120.5c-8.284 0-15-6.716-15-15s6.716-15 15-15h120.5c8.284 0 15 6.716 15 15zm-180.75 0c.363 8.101-7.154 15-15 15-8.409 0-14.636-6.873-15-15-.363-8.101 7.154-15 15-15 8.409 0 14.636 6.873 15 15zm-60.25 0c.363 8.101-7.154 15-15 15-8.409 0-14.636-6.873-15-15-.363-8.101 7.154-15 15-15 8.409 0 14.636 6.873 15 15zm-60.25 0c.363 8.101-7.154 15-15 15-8.409 0-14.636-6.873-15-15-.363-8.101 7.154-15 15-15 8.409 0 14.636 6.873 15 15zm-60.25 0c.363 8.101-7.154 15-15 15-8.409 0-14.636-6.873-15-15-.363-8.101 7.154-15 15-15 8.409 0 14.636 6.873 15 15z"/><path d="m468.5 180.75h-425c-23.986 0-43.5 19.514-43.5 43.5v63.5c0 23.986 19.514 43.5 43.5 43.5h425c23.986 0 43.5-19.514 43.5-43.5v-63.5c0-23.986-19.514-43.5-43.5-43.5zm-16.75 75.25c0 8.284-6.716 15-15 15h-120.5c-8.284 0-15-6.716-15-15s6.716-15 15-15h120.5c8.284 0 15 6.716 15 15zm-180.75 0c.363 8.101-7.154 15-15 15-8.409 0-14.636-6.873-15-15-.363-8.101 7.154-15 15-15 8.409 0 14.636 6.873 15 15zm-60.25 0c.363 8.101-7.154 15-15 15-8.409 0-14.636-6.873-15-15-.363-8.101 7.154-15 15-15 8.409 0 14.636 6.873 15 15zm-60.25 0c.363 8.101-7.154 15-15 15-8.409 0-14.636-6.873-15-15-.363-8.101 7.154-15 15-15 8.409 0 14.636 6.873 15 15zm-60.25 0c.363 8.101-7.154 15-15 15-8.409 0-14.636-6.873-15-15-.363-8.101 7.154-15 15-15 8.409 0 14.636 6.873 15 15z"/><path d="m468.5 0h-425c-23.986 0-43.5 19.514-43.5 43.5v63.5c0 23.986 19.514 43.5 43.5 43.5h425c23.986 0 43.5-19.514 43.5-43.5v-63.5c0-23.986-19.514-43.5-43.5-43.5zm-16.75 75.25c0 8.284-6.716 15-15 15h-120.5c-8.284 0-15-6.716-15-15s6.716-15 15-15h120.5c8.284 0 15 6.716 15 15zm-180.75 0c.363 8.101-7.154 15-15 15-8.409 0-14.636-6.873-15-15-.363-8.101 7.154-15 15-15 8.409 0 14.636 6.873 15 15zm-60.25 0c.363 8.101-7.154 15-15 15-8.409 0-14.636-6.873-15-15-.363-8.101 7.154-15 15-15 8.409 0 14.636 6.873 15 15zm-60.25 0c.363 8.101-7.154 15-15 15-8.409 0-14.636-6.873-15-15-.363-8.101 7.154-15 15-15 8.409 0 14.636 6.873 15 15zm-60.25 0c.363 8.101-7.154 15-15 15-8.409 0-14.636-6.873-15-15-.363-8.101 7.154-15 15-15 8.409 0 14.636 6.873 15 15z"/></g></svg>